<svg viewBox="0 0 1024 1024"  xmlns="http://www.w3.org/2000/svg">
<defs>
 <g id="asset1495" desc="Hakko Daiodo (CC-BY equivalent)/Suhama/Maruni Atamaawase Mitsusuhama">
  <path d="m491 314 c7 2 13 6 19 10 6 -4 13 -8 19 -10 -10 -14 -16 -32 -16 -50 0 -49 40 -89 89 -89 49 0 89 40 89 89 0 37 -22 68 -54 82 0 5 1 9 1 14 0 71 -58 129 -129 129 -71 0 -129 -58 -129 -129 0 -4 0 -9 1 -13 -32 -14 -55 -45 -55 -83 0 -49 40 -89 89 -89 49 0 89 40 89 89 0 19 -6 36 -15 50 " />
  <path d="m348 630 c-1 -7 -2 -14 -1 -22 -7 -3 -13 -7 -18 -12 -8 16 -20 29 -36 39 -43 25 -98 10 -122 -33 -25 -43 -10 -98 33 -122 32 -18 70 -15 98 5 4 -3 7 -5 12 -7 62 -36 141 -15 177 47 36 62 15 141 -47 177 -4 2 -8 4 -11 6 4 35 -12 70 -44 89 -43 25 -97 10 -122 -33 -25 -43 -10 -97 33 -122 16 -9 34 -13 51 -12 " />
  <path d="m694 596 c-6 5 -12 9 -18 12 1 7 0 15 -1 22 17 -1 35 2 51 12 43 25 57 79 33 122 -25 43 -79 57 -122 33 -32 -18 -48 -53 -44 -87 -4 -2 -8 -4 -12 -6 -62 -36 -83 -115 -47 -177 36 -62 115 -83 177 -47 4 2 7 4 11 7 28 -21 67 -25 99 -6 43 25 57 79 33 122 -25 43 -79 57 -122 33 -16 -9 -28 -23 -36 -38 " />
  <path d="m252 255 c-66 66 -107 158 -107 259 0 101 41 193 107 259 66 66 158 107 259 107 101 0 193 -41 259 -107 66 -66 107 -158 107 -259 0 -101 -41 -193 -107 -259 -66 -66 -158 -107 -259 -107 -101 0 -193 41 -259 107 M61 515 C61 266 263 64 512 64 760 64 962 266 962 515 962 764 760 965 512 965 263 965 61 764 61 515 " />
 </g>
</defs>
 <rect x="0" y="0" width="100%" height="100%" fill="#3D5943" />
 <use href="#asset1495" fill="#FFFFFF" />
</svg>
