<svg width="1024" height="1024" viewBox="0 0 1024 1024" xmlns="http://www.w3.org/2000/svg" shape-rendering="crispEdges">
<rect width="1024" height="1024" fill="#71BCE1" />
<path d="M146,536 Q187,600,239,560,291,521,329,476,368,431,420,573,472,716,517,444,563,173,599,409,635,645,680,392,726,139,781,439,837,740,908,568" fill="transparent" stroke="#D12229" stroke-width="48" stroke-linecap="round" transform="translate(0,0)"/>
<path d="M146,536 Q187,600,239,560,291,521,329,476,368,431,420,573,472,716,517,444,563,173,599,409,635,645,680,392,726,139,781,439,837,740,908,568" fill="transparent" stroke="#F68A1E" stroke-width="48" stroke-linecap="round" transform="translate(0,40)"/>
<path d="M146,536 Q187,600,239,560,291,521,329,476,368,431,420,573,472,716,517,444,563,173,599,409,635,645,680,392,726,139,781,439,837,740,908,568" fill="transparent" stroke="#FDE01A" stroke-width="48" stroke-linecap="round" transform="translate(0,80)"/>
<path d="M146,536 Q187,600,239,560,291,521,329,476,368,431,420,573,472,716,517,444,563,173,599,409,635,645,680,392,726,139,781,439,837,740,908,568" fill="transparent" stroke="#007940" stroke-width="48" stroke-linecap="round" transform="translate(0,120)"/>
<path d="M146,536 Q187,600,239,560,291,521,329,476,368,431,420,573,472,716,517,444,563,173,599,409,635,645,680,392,726,139,781,439,837,740,908,568" fill="transparent" stroke="#24408E" stroke-width="48" stroke-linecap="round" transform="translate(0,160)"/>
<path d="M146,536 Q187,600,239,560,291,521,329,476,368,431,420,573,472,716,517,444,563,173,599,409,635,645,680,392,726,139,781,439,837,740,908,568" fill="transparent" stroke="#732982" stroke-width="48" stroke-linecap="round" transform="translate(0,200)"/>
</svg>
